<?xml version="1.0" standalone="no"?>
<!DOCTYPE svg PUBLIC "-//W3C//DTD SVG 20010904//EN"
 "http://www.w3.org/TR/2001/REC-SVG-20010904/DTD/svg10.dtd">
<svg version="1.0" xmlns="http://www.w3.org/2000/svg"
 width="2100.000000pt" height="2100.000000pt" viewBox="0 0 2100.000000 2100.000000"
 preserveAspectRatio="xMidYMid meet">
<metadata>
Created by potrace 1.11, written by Peter Selinger 2001-2013
</metadata>
<g transform="translate(0.000000,2100.000000) scale(0.100000,-0.100000)"
fill="#000000" stroke="none">
<path d="M10118 20995 c-2 -2 -66 -6 -143 -9 -77 -4 -160 -8 -185 -11 -25 -2
-88 -6 -140 -10 -52 -3 -106 -7 -120 -10 -14 -2 -61 -7 -104 -10 -43 -4 -88
-9 -100 -11 -12 -2 -46 -6 -76 -9 -30 -2 -66 -7 -80 -9 -14 -3 -47 -8 -75 -11
-27 -3 -90 -12 -140 -20 -49 -7 -108 -16 -130 -19 -22 -4 -76 -13 -120 -21
-44 -8 -93 -17 -110 -19 -30 -5 -106 -20 -155 -31 -14 -2 -47 -9 -75 -15 -27
-5 -59 -11 -70 -14 -11 -2 -51 -11 -90 -20 -226 -49 -614 -154 -870 -235 -71
-23 -137 -43 -145 -45 -80 -22 -608 -221 -757 -286 -27 -12 -58 -25 -70 -31
-52 -21 -72 -30 -146 -64 -43 -19 -81 -35 -84 -35 -9 0 -537 -263 -613 -305
-83 -46 -167 -93 -205 -115 -16 -10 -64 -37 -105 -60 -41 -23 -98 -58 -127
-76 -28 -19 -54 -34 -57 -34 -25 0 -672 -440 -856 -582 -219 -170 -446 -354
-560 -454 -14 -13 -36 -32 -50 -44 -217 -186 -608 -572 -847 -836 -76 -84 -81
-90 -153 -175 -25 -29 -52 -61 -62 -70 -102 -104 -595 -755 -718 -949 -5 -8
-29 -44 -53 -80 -34 -52 -129 -202 -204 -325 -33 -53 -175 -298 -204 -350 -18
-33 -50 -91 -71 -130 -83 -151 -309 -615 -346 -710 -8 -22 -19 -44 -23 -50 -4
-5 -33 -73 -64 -150 -31 -77 -63 -153 -70 -170 -96 -220 -319 -893 -389 -1175
-2 -8 -12 -44 -21 -80 -32 -123 -79 -323 -101 -425 -2 -11 -15 -74 -29 -140
-13 -66 -27 -138 -30 -160 -4 -22 -8 -47 -10 -55 -2 -8 -7 -30 -10 -47 -3 -18
-7 -45 -10 -60 -16 -96 -41 -264 -50 -338 -4 -27 -8 -61 -10 -75 -2 -14 -7
-52 -10 -85 -4 -33 -8 -67 -10 -75 -2 -8 -7 -49 -10 -90 -3 -41 -8 -88 -10
-105 -2 -16 -6 -75 -10 -130 -4 -55 -8 -110 -10 -123 -26 -164 -26 -1208 0
-1447 3 -22 7 -76 10 -120 6 -94 13 -174 20 -230 3 -22 7 -62 10 -90 8 -73 15
-131 25 -205 5 -36 12 -87 16 -115 3 -27 8 -59 10 -70 3 -18 13 -76 19 -120
24 -170 111 -603 156 -780 12 -44 22 -87 24 -95 42 -205 291 -1001 364 -1165
5 -11 33 -81 62 -155 131 -338 348 -804 521 -1120 113 -205 139 -253 148 -265
4 -5 19 -30 32 -55 50 -90 212 -351 312 -502 39 -59 132 -194 136 -198 3 -3
20 -27 39 -55 44 -64 286 -388 303 -406 7 -8 33 -41 58 -74 40 -52 71 -91 105
-129 6 -6 28 -34 50 -61 22 -28 44 -55 50 -61 5 -6 30 -34 55 -63 25 -29 56
-65 70 -81 14 -15 54 -60 90 -100 217 -244 600 -622 840 -830 35 -30 68 -60
74 -65 68 -64 364 -304 536 -433 74 -56 140 -106 145 -110 32 -27 327 -230
425 -294 179 -116 340 -218 345 -218 4 0 62 -35 130 -77 11 -7 45 -26 75 -43
30 -17 69 -39 87 -49 103 -63 592 -311 768 -391 233 -105 507 -219 680 -281
61 -22 117 -43 125 -48 19 -10 489 -162 590 -192 41 -11 86 -25 100 -29 56
-18 471 -125 530 -136 14 -3 61 -13 105 -24 44 -10 98 -21 120 -24 22 -4 56
-11 75 -16 19 -5 53 -11 74 -15 21 -3 48 -7 60 -10 20 -5 39 -8 96 -19 31 -5
121 -20 135 -21 13 -1 102 -16 123 -20 10 -1 40 -6 67 -9 28 -4 79 -11 115
-16 65 -9 112 -15 205 -25 129 -15 194 -21 325 -31 47 -3 101 -8 120 -9 258
-26 1304 -26 1437 -1 10 2 68 7 128 11 61 3 121 8 135 10 14 2 59 7 100 10 41
4 82 9 90 10 8 2 44 6 80 10 36 4 72 8 80 10 8 2 44 6 80 10 36 4 67 8 70 10
3 1 32 6 65 9 33 4 67 9 75 11 8 2 33 6 55 9 89 13 456 83 575 110 36 8 76 17
90 20 14 2 63 14 110 26 47 12 92 23 100 25 8 2 44 11 80 20 36 9 72 19 80 20
98 23 358 101 575 173 61 20 112 37 115 38 3 0 12 4 20 7 8 3 42 15 75 26 33
11 85 30 115 41 30 12 69 26 85 32 17 5 39 14 50 18 11 5 63 26 115 46 52 20
115 45 140 56 25 10 54 23 65 27 429 180 1059 500 1351 687 29 19 56 34 60 34
4 0 22 11 40 25 18 14 36 25 39 25 4 0 25 13 48 29 23 15 96 63 162 106 171
111 396 270 565 398 128 97 166 127 255 198 42 34 271 226 304 254 32 28 105
93 178 160 220 199 540 520 718 720 44 50 87 97 96 105 28 28 273 324 380 460
264 335 601 828 777 1135 16 28 46 79 66 115 37 63 67 118 148 265 76 137 287
573 357 735 40 91 76 174 81 185 21 46 182 462 186 480 1 6 21 61 43 123 71
198 228 719 256 850 2 9 21 91 43 182 52 214 107 482 127 610 13 88 17 110 25
155 5 28 17 103 25 167 9 65 18 127 20 138 2 12 7 51 10 88 3 37 8 74 10 82 2
8 7 53 11 100 3 47 8 99 10 115 28 279 39 529 39 955 0 333 -7 605 -20 730 -1
19 -6 71 -9 115 -12 158 -20 235 -47 450 -11 88 -22 178 -25 200 -2 22 -8 60
-13 85 -9 45 -28 158 -36 215 -5 39 -41 228 -54 285 -5 25 -12 59 -15 75 -10
53 -77 348 -81 355 -2 4 -6 20 -9 36 -3 16 -29 112 -57 214 -28 102 -55 199
-59 215 -50 191 -253 771 -326 933 -13 29 -24 56 -24 61 0 36 -358 798 -468
996 -15 28 -50 91 -77 140 -82 152 -282 481 -394 650 -58 88 -108 164 -110
170 -2 5 -7 12 -10 15 -4 3 -33 43 -66 90 -54 78 -234 324 -269 367 -8 10 -52
65 -97 123 -72 92 -214 266 -229 280 -3 3 -28 32 -55 65 -28 33 -57 67 -65 75
-8 8 -35 38 -59 65 -192 219 -541 569 -781 784 -58 52 -112 102 -121 110 -9 9
-27 25 -40 35 -13 11 -49 41 -79 66 -30 26 -66 56 -78 66 -13 11 -36 29 -50
42 -133 115 -533 414 -752 562 -69 47 -127 87 -130 90 -3 3 -13 10 -22 15 -10
6 -88 55 -174 110 -87 55 -162 102 -168 105 -6 3 -65 37 -131 76 -113 67 -159
93 -315 179 -68 37 -529 266 -615 305 -408 186 -829 346 -1265 481 -171 53
-478 138 -610 170 -25 5 -61 14 -80 19 -130 33 -606 127 -730 144 -25 4 -56 9
-70 11 -45 8 -86 15 -126 20 -119 15 -193 25 -224 30 -14 2 -55 6 -92 10 -37
3 -75 7 -85 9 -10 2 -56 7 -103 10 -47 4 -103 9 -125 11 -37 4 -132 10 -300
21 -82 6 -932 14 -937 9z"/>
</g>
</svg>
